<svg xmlns="http://www.w3.org/2000/svg" viewBox="0 0 512 512">
  <defs>
    <linearGradient id="bgGrad" x1="0" y1="0" x2="512" y2="512" gradientUnits="userSpaceOnUse">
      <stop offset="0" stop-color="#1c1d26"/>
      <stop offset="1" stop-color="#101116"/>
    </linearGradient>

    <radialGradient id="glow" cx="256" cy="256" r="230" gradientUnits="userSpaceOnUse">
      <stop offset="0" stop-color="#ff7a3d" stop-opacity="0.30"/>
      <stop offset="0.6" stop-color="#ff7a3d" stop-opacity="0.10"/>
      <stop offset="1" stop-color="#ff7a3d" stop-opacity="0"/>
    </radialGradient>

    <!-- gradient coordinates are in the mark's own 0-48 space, since it is applied to paths inside the scaled/translated group -->
    <linearGradient id="markGrad" x1="4" y1="4" x2="44" y2="44" gradientUnits="userSpaceOnUse">
      <stop offset="0" stop-color="#ffd9a8"/>
      <stop offset="1" stop-color="#ff4d4d"/>
    </linearGradient>

    <linearGradient id="topSheen" x1="0" y1="16" x2="0" y2="260" gradientUnits="userSpaceOnUse">
      <stop offset="0" stop-color="#ffffff" stop-opacity="0.08"/>
      <stop offset="1" stop-color="#ffffff" stop-opacity="0"/>
    </linearGradient>

    <clipPath id="squircle">
      <rect x="16" y="16" width="480" height="480" rx="110" ry="110"/>
    </clipPath>
  </defs>

  <!-- background -->
  <rect x="16" y="16" width="480" height="480" rx="110" ry="110" fill="url(#bgGrad)"/>

  <g clip-path="url(#squircle)">
    <!-- safelight glow -->
    <circle cx="256" cy="256" r="230" fill="url(#glow)"/>

    <!-- Immich pinwheel mark, recolored and centered -->
    <g transform="translate(106,106) scale(6.25)" fill="none" stroke="url(#markGrad)" stroke-width="1.7" stroke-linecap="round" stroke-linejoin="round">
      <path d="M26.48 30.008s7.565 1.264 13.794-1.58c4.371-1.996 5.646-6.196 4.09-10.985c-1.556-4.79-6.498-8.063-11.068-6.578c-.063 11.715-6.816 19.143-6.816 19.143"/>
      <path d="M18.873 28.26s1.135 7.585 5.765 12.63c3.25 3.541 7.637 3.456 11.711.496s5.66-8.672 2.836-12.56c-11.16 3.56-20.312-.566-20.312-.566"/>
      <path d="M18.184 20.485s-6.863 3.423-10.23 9.386c-2.364 4.184-.927 8.331 3.148 11.291s9.996 2.704 12.82-1.184c-6.835-9.514-5.738-19.493-5.738-19.493"/>
      <path d="M25.366 17.427s-5.377-5.47-12.088-6.83c-4.71-.954-8.21 1.695-9.766 6.484c-1.556 4.79.518 10.343 5.088 11.828c6.937-9.441 16.766-11.482 16.766-11.482"/>
      <path d="M30.493 23.313s3.54-6.804 2.76-13.607c-.548-4.774-4.148-7.284-9.184-7.284s-9.676 3.688-9.676 8.493c11.122 3.68 16.1 12.398 16.1 12.398"/>
    </g>

    <!-- glass sheen -->
    <rect x="16" y="16" width="480" height="480" rx="110" ry="110" fill="url(#topSheen)"/>
  </g>

  <rect x="16.5" y="16.5" width="479" height="479" rx="109.5" ry="109.5" fill="none" stroke="#00000055" stroke-width="1"/>
</svg>
